<svg width="200" height="138" viewBox="0 0 200 138" fill="none" xmlns="http://www.w3.org/2000/svg">
<path d="M100.565 6.37043C99.3032 2.64909 95.7711 0 91.6083 0H22.2274C18.0645 0 14.5955 2.64909 13.271 6.37043L0.84548 42.1331C0.403966 43.4576 0.151672 44.8453 0.151672 46.296V91.4566C0.151672 96.6917 4.3776 100.918 9.6127 100.918C14.8478 100.918 19.0737 96.6917 19.0737 91.4566V88.3029H94.7619V91.4566C94.7619 96.6286 98.9879 100.918 104.223 100.918C109.395 100.918 113.684 96.6917 113.684 91.4566V46.296C113.684 44.9083 113.432 43.4576 112.99 42.1331L100.565 6.37043ZM22.2274 69.3809C16.9923 69.3809 12.7664 65.1549 12.7664 59.9198C12.7664 54.6847 16.9923 50.4588 22.2274 50.4588C27.4625 50.4588 31.6884 54.6847 31.6884 59.9198C31.6884 65.1549 27.4625 69.3809 22.2274 69.3809ZM91.6083 69.3809C86.3732 69.3809 82.1472 65.1549 82.1472 59.9198C82.1472 54.6847 86.3732 50.4588 91.6083 50.4588C96.8434 50.4588 101.069 54.6847 101.069 59.9198C101.069 65.1549 96.8434 69.3809 91.6083 69.3809ZM12.7664 37.8441L20.7767 13.75C21.6597 11.2271 24.0565 9.46103 26.7687 9.46103H87.067C89.7791 9.46103 92.1759 11.2271 93.0589 13.75L101.069 37.8441H12.7664Z" fill="#9A0000"/>
<path d="M63.2747 133.799C79.3333 137.486 93.7755 127.065 96.7168 112.439L101.82 117.556C104.666 120.411 108.496 121.995 112.48 121.995H118.804C124.209 121.995 129.171 119.129 131.87 114.392C131.87 114.392 131.87 114.392 131.87 114.392L148.464 85.2844L150.607 87.4336C144.154 93.7945 140.799 103.286 143.165 113.528L143.168 113.539C145.512 123.496 153.556 131.573 163.511 133.861L163.518 133.863C181.469 137.932 197.437 124.254 197.437 106.938C197.437 91.6882 185.118 79.3235 169.894 79.3235C169.068 79.3235 168.217 79.4112 167.474 79.5029L159.722 71.7662H163.633C168.463 71.7662 172.394 67.8149 172.394 62.9876V60.6017C172.394 54.1264 165.576 49.7926 159.689 52.7818C159.686 52.7831 159.684 52.7843 159.681 52.7856L147.035 59.1267L132.241 44.2917C130.638 42.6095 128.362 41.6516 126.067 41.6516H107.284C102.453 41.6516 98.5229 45.6029 98.5229 50.4303C98.5229 55.2576 102.453 59.2089 107.284 59.2089H120.87C121.854 59.2089 122.808 59.6057 123.572 60.3216L129.998 66.7662H115.047C113.613 66.7662 112.292 67.1291 111.109 67.7221L91.45 77.5795C90.0125 78.3003 88.2609 78.0164 87.1694 76.8854L87.1552 76.8706L87.1407 76.8561L79.6275 69.3217L79.6037 69.2978L79.5792 69.2746C77.9573 67.7337 75.7239 66.7662 73.412 66.7662H50.9351C46.1042 66.7662 42.1741 70.7175 42.1741 75.5449C42.1741 80.3722 46.1042 84.3235 50.9351 84.3235H53.8901C45.1916 90.4471 40.2059 101.484 42.9252 113.395C45.2038 123.432 53.2572 131.512 63.2747 133.799ZM63.2747 133.799C63.2742 133.799 63.2737 133.799 63.2731 133.799L63.8327 131.362L63.2764 133.799C63.2759 133.799 63.2753 133.799 63.2747 133.799ZM69.718 116.995C64.2183 116.995 59.6961 112.471 59.6961 106.938C59.6961 101.406 64.2183 96.8808 69.718 96.8808C75.2177 96.8808 79.74 101.406 79.74 106.938C79.74 112.471 75.2177 116.995 69.718 116.995ZM169.894 116.995C164.394 116.995 159.872 112.471 159.872 106.938C159.872 101.406 164.394 96.8808 169.894 96.8808C175.393 96.8808 179.916 101.406 179.916 106.938C179.916 112.471 175.393 116.995 169.894 116.995Z" fill="#9A0000" stroke="white" stroke-width="5"/>
</svg>
