<svg width="53" height="53" viewBox="0 0 53 53" fill="none" xmlns="http://www.w3.org/2000/svg">
<circle cx="26.5" cy="26.5" r="26.5" fill="#9A0000"/>
<path d="M12.5001 35.4475L12.4977 35.6026L12.5836 35.7319C15.5749 40.2303 20.7006 43.2 26.5 43.2C32.2994 43.2 37.4251 40.2303 40.4164 35.7319L40.5023 35.6026L40.4999 35.4475C40.4804 34.148 39.8137 33.035 38.8333 32.1181C37.855 31.203 36.5305 30.4488 35.0965 29.8496C32.2307 28.6521 28.8072 28.025 26.5 28.025C24.1817 28.025 20.7582 28.6521 17.8949 29.8497C16.4622 30.4489 15.1397 31.2032 14.1631 32.1184C13.1845 33.0356 12.5196 34.1485 12.5001 35.4475ZM4.5 26.5C4.5 14.3561 14.3561 4.5 26.5 4.5C38.6439 4.5 48.5 14.3561 48.5 26.5C48.5 38.6439 38.6439 48.5 26.5 48.5C14.3561 48.5 4.5 38.6439 4.5 26.5ZM33.75 17.5C33.75 13.4889 30.5111 10.25 26.5 10.25C22.4889 10.25 19.25 13.4889 19.25 17.5C19.25 21.5111 22.4889 24.75 26.5 24.75C30.5111 24.75 33.75 21.5111 33.75 17.5Z" fill="white" stroke="#9A0000"/>
</svg>
