<svg width="47" height="33" viewBox="0 0 47 33" fill="none" xmlns="http://www.w3.org/2000/svg">
<path d="M22.8067 1.44691C22.5202 0.601685 21.718 0 20.7724 0H5.01404C4.06853 0 3.28061 0.601685 2.97977 1.44691L0.157584 9.56965C0.0573031 9.87049 0 10.1857 0 10.5152V20.7724C0 21.9615 0.95983 22.9213 2.14887 22.9213C3.33792 22.9213 4.29775 21.9615 4.29775 20.7724V20.0562H21.4887V20.7724C21.4887 21.9472 22.4486 22.9213 23.6376 22.9213C24.8123 22.9213 25.7865 21.9615 25.7865 20.7724V10.5152C25.7865 10.2 25.7292 9.87049 25.6289 9.56965L22.8067 1.44691ZM5.01404 15.7584C3.825 15.7584 2.86516 14.7986 2.86516 13.6095C2.86516 12.4205 3.825 11.4607 5.01404 11.4607C6.20308 11.4607 7.16291 12.4205 7.16291 13.6095C7.16291 14.7986 6.20308 15.7584 5.01404 15.7584ZM20.7724 15.7584C19.5834 15.7584 18.6236 14.7986 18.6236 13.6095C18.6236 12.4205 19.5834 11.4607 20.7724 11.4607C21.9615 11.4607 22.9213 12.4205 22.9213 13.6095C22.9213 14.7986 21.9615 15.7584 20.7724 15.7584ZM2.86516 8.5955L4.68454 3.12303C4.88511 2.55 5.42949 2.14887 6.0455 2.14887H19.741C20.357 2.14887 20.9014 2.55 21.1019 3.12303L22.9213 8.5955H2.86516Z" fill="white"/>
<path d="M27.732 14.0117L28.4506 14.7323H26.0962C25.6953 14.7323 25.3295 14.8341 25.008 14.9953L20.5428 17.2342C20.3791 17.3163 20.1871 17.2787 20.0752 17.1628L20.0695 17.1569L20.0637 17.1511L18.3573 15.4398L18.3477 15.4302L18.338 15.4209C17.8948 14.9999 17.2829 14.7323 16.6395 14.7323H11.5344C10.1973 14.7323 9.11233 15.8244 9.11233 17.1584C9.11233 18.3357 9.95745 19.3246 11.0751 19.5407C9.52548 21.0897 8.73308 23.3953 9.29372 25.8513C9.84805 28.2925 11.8034 30.2546 14.2413 30.811C17.8545 31.6401 21.1332 29.5215 22.1586 26.3767L22.7857 27.0056C23.5131 27.7351 24.4929 28.1408 25.5131 28.1408H26.9494C28.3321 28.1408 29.6025 27.4066 30.2925 26.1958C30.2925 26.1957 30.2926 26.1957 30.2926 26.1956L31.9552 23.2793C31.8281 24.1054 31.8534 24.9826 32.0614 25.8829L32.0624 25.8869C32.6322 28.307 34.5833 30.268 37.0068 30.825L37.0097 30.8256C41.3653 31.813 45.2415 28.4906 45.2415 24.2887C45.2415 20.5875 42.251 17.5845 38.5533 17.5845C38.4228 17.5845 38.2884 17.5932 38.1625 17.6051L37.2832 16.7276C38.5495 16.6486 39.5533 15.5893 39.5533 14.3063V13.7644C39.5533 11.9775 37.6704 10.7758 36.0408 11.6024C36.0398 11.6029 36.0388 11.6034 36.0378 11.6039L33.4469 12.903L30.3107 9.75799C29.8642 9.29166 29.2354 9.02808 28.599 9.02808H24.3328C22.9957 9.02808 21.9108 10.1202 21.9108 11.4541C21.9108 12.7881 22.9957 13.8802 24.3328 13.8802H27.4187C27.5213 13.8802 27.6327 13.9205 27.732 14.0117ZM15.8005 26.1408C14.7912 26.1408 13.9564 25.3078 13.9564 24.2887C13.9564 23.2697 14.7912 22.4366 15.8005 22.4366C16.8098 22.4366 17.6446 23.2697 17.6446 24.2887C17.6446 25.3078 16.8098 26.1408 15.8005 26.1408ZM38.5533 26.1408C37.544 26.1408 36.7092 25.3078 36.7092 24.2887C36.7092 23.2697 37.544 22.4366 38.5533 22.4366C39.5626 22.4366 40.3974 23.2697 40.3974 24.2887C40.3974 25.3078 39.5626 26.1408 38.5533 26.1408Z" fill="white" stroke="#9A0000" stroke-width="2"/>
</svg>
