<svg width="36" height="35" viewBox="0 0 36 35" fill="none" xmlns="http://www.w3.org/2000/svg">
<path d="M6.74154 24.4575L6.7392 24.6126L6.82513 24.7419C9.17134 28.2703 13.192 30.6 17.7415 30.6C22.2909 30.6 26.3116 28.2703 28.6578 24.7419L28.7438 24.6126L28.7414 24.4575C28.7256 23.4068 28.1861 22.5144 27.41 21.7885C26.6359 21.0644 25.5926 20.4716 24.4705 20.0027C22.2284 19.0659 19.5512 18.575 17.7415 18.575C15.9232 18.575 13.2459 19.0658 11.0057 20.0028C9.88464 20.4717 8.8429 21.0646 8.07017 21.7888C7.29533 22.5149 6.75737 23.4072 6.74154 24.4575ZM0.741486 17.5C0.741486 8.11614 8.35763 0.5 17.7415 0.5C27.1253 0.5 34.7415 8.11614 34.7415 17.5C34.7415 26.8839 27.1253 34.5 17.7415 34.5C8.35763 34.5 0.741486 26.8839 0.741486 17.5ZM23.4915 10.5C23.4915 7.31886 20.9226 4.75 17.7415 4.75C14.5603 4.75 11.9915 7.31886 11.9915 10.5C11.9915 13.6811 14.5603 16.25 17.7415 16.25C20.9226 16.25 23.4915 13.6811 23.4915 10.5Z" fill="white" stroke="#9A0000"/>
</svg>
