<svg width="26" height="26" viewBox="0 0 26 26" fill="none" xmlns="http://www.w3.org/2000/svg">
<path d="M13 0.5C6.1 0.5 0.5 6.1 0.5 13C0.5 19.9 6.1 25.5 13 25.5C19.9 25.5 25.5 19.9 25.5 13C25.5 6.1 19.9 0.5 13 0.5ZM14.25 21.75H11.75V19.25H14.25V21.75ZM16.8375 12.0625L15.7125 13.2125C14.8125 14.125 14.25 14.875 14.25 16.75H11.75V16.125C11.75 14.75 12.3125 13.5 13.2125 12.5875L14.7625 11.0125C15.225 10.5625 15.5 9.9375 15.5 9.25C15.5 7.875 14.375 6.75 13 6.75C11.625 6.75 10.5 7.875 10.5 9.25H8C8 6.4875 10.2375 4.25 13 4.25C15.7625 4.25 18 6.4875 18 9.25C18 10.35 17.55 11.35 16.8375 12.0625Z" fill="#9A0000"/>
</svg>
