<svg width="24" height="24" viewBox="0 0 24 24" fill="none" xmlns="http://www.w3.org/2000/svg">
<path d="M19.3017 16.6154V10.4615C19.3017 6.68308 17.3072 3.52 13.829 2.68308V1.84615C13.829 0.824615 13.002 0 11.9926 0C10.9832 0 10.1805 0.824615 10.1805 1.84615V2.68308C6.69016 3.52 4.70783 6.67077 4.70783 10.4615V16.6154L3.12682 18.2031C2.36065 18.9785 2.89575 20.3077 3.97813 20.3077H19.9949C21.0773 20.3077 21.6246 18.9785 20.8584 18.2031L19.3017 16.6154ZM11.9926 24C13.3304 24 14.4249 22.8923 14.4249 21.5385H9.56029C9.56029 22.8923 10.6427 24 11.9926 24ZM5.64427 2.74462C6.15505 2.27692 6.16721 1.47692 5.68075 0.984615C5.21861 0.516923 4.4646 0.504615 3.99029 0.96C1.91067 2.88 0.475603 5.48923 0.013464 8.41846C-0.0959901 9.16923 0.475603 9.84615 1.22962 9.84615C1.81338 9.84615 2.32416 9.41539 2.42145 8.82462C2.7863 6.43692 3.95381 4.30769 5.64427 2.74462ZM20.0314 0.96C19.5449 0.504615 18.7909 0.516923 18.3288 0.984615C17.8423 1.47692 17.8666 2.26462 18.3653 2.73231C20.0436 4.29538 21.2232 6.42462 21.5881 8.81231C21.6732 9.40308 22.184 9.83385 22.7799 9.83385C23.5218 9.83385 24.1055 9.15692 23.9839 8.40615C23.5218 5.48923 22.0989 2.89231 20.0314 0.96Z" fill="#9A0000"/>
</svg>
