<svg width="27" height="27" viewBox="0 0 27 27" fill="none" xmlns="http://www.w3.org/2000/svg">
<rect width="27" height="27" fill="white"/>
<g clip-path="url(#clip0_705_81)">
<path d="M23.207 13.7282C23.207 13.0552 23.1524 12.3786 23.036 11.7166H13.698V15.5289H19.0454C18.8235 16.7584 18.1105 17.8461 17.0665 18.5372V21.0109H20.2568C22.1302 19.2866 23.207 16.7402 23.207 13.7282Z" fill="#4285F4"/>
<path d="M13.698 23.4009C16.368 23.4009 18.6198 22.5242 20.2604 21.0109L17.0701 18.5373C16.1825 19.1411 15.0366 19.4831 13.7016 19.4831C11.1188 19.4831 8.92894 17.7406 8.14319 15.3979H4.85107V17.948C6.53169 21.291 9.95477 23.4009 13.698 23.4009Z" fill="#34A853"/>
<path d="M8.13957 15.3979C7.72487 14.1683 7.72487 12.8369 8.13957 11.6074V9.05737H4.85109C3.44694 11.8548 3.44694 15.1505 4.85109 17.9479L8.13957 15.3979Z" fill="#FBBC04"/>
<path d="M13.698 7.51857C15.1094 7.49674 16.4735 8.02784 17.4957 9.00275L20.3222 6.17626C18.5325 4.49564 16.157 3.57166 13.698 3.60076C9.95477 3.60076 6.53169 5.71063 4.85107 9.05731L8.13955 11.6073C8.92166 9.26103 11.1152 7.51857 13.698 7.51857Z" fill="#EA4335"/>
</g>
<defs>
<clipPath id="clip0_705_81">
<rect width="19.8" height="19.8" fill="white" transform="translate(3.59998 3.6001)"/>
</clipPath>
</defs>
</svg>
