<svg width="86" height="86" viewBox="0 0 86 86" fill="none" xmlns="http://www.w3.org/2000/svg">
<circle cx="43" cy="43" r="43" fill="white"/>
<path d="M42.9987 7.125C23.1964 7.125 7.125 23.1964 7.125 42.9987C7.125 62.8009 23.1964 78.8723 42.9987 78.8723C62.8009 78.8723 78.8723 62.8009 78.8723 42.9987C78.8723 23.1964 62.8009 7.125 42.9987 7.125ZM57.3481 46.586H46.586V57.3481C46.586 59.3212 44.9717 60.9355 42.9987 60.9355C41.0256 60.9355 39.4113 59.3212 39.4113 57.3481V46.586H28.6492C26.6761 46.586 25.0618 44.9717 25.0618 42.9987C25.0618 41.0256 26.6761 39.4113 28.6492 39.4113H39.4113V28.6492C39.4113 26.6761 41.0256 25.0618 42.9987 25.0618C44.9717 25.0618 46.586 26.6761 46.586 28.6492V39.4113H57.3481C59.3212 39.4113 60.9355 41.0256 60.9355 42.9987C60.9355 44.9717 59.3212 46.586 57.3481 46.586Z" fill="#9A0000"/>
</svg>
